HIERARCHY
ROOT Hips
{
	OFFSET 0.000000 0.000000 0.000000
	CHANNELS 6 Xposition Yposition Zposition Zrotation Yrotation Xrotation 
	JOINT LHipJoint
	{
		OFFSET 0.000000 0.000000 0.000000
		CHANNELS 3 Zrotation Yrotation Xrotation
		JOINT LeftUpLeg
		{
			OFFSET 1.363060 -1.794630 0.839290
			CHANNELS 3 Zrotation Yrotation Xrotation
			JOINT LeftLeg
			{
				OFFSET 2.448110 -6.726130 0.000000
				CHANNELS 3 Zrotation Yrotation Xrotation
				JOINT LeftFoot
				{
					OFFSET 2.562200 -7.039590 0.000000
					CHANNELS 3 Zrotation Yrotation Xrotation
					JOINT LeftToeBase
					{
						OFFSET 0.157640 -0.433110 2.322550
						CHANNELS 3 Zrotation Yrotation Xrotation
						End Site
						{
							OFFSET 0.000000 0.000000 0.000000
						}
					}
				}
			}
		}
	}
	JOINT RHipJoint
	{
		OFFSET 0.000000 0.000000 0.000000
		CHANNELS 3 Zrotation Yrotation Xrotation
		JOINT RightUpLeg
		{
			OFFSET -1.305520 -1.794630 0.839290
			CHANNELS 3 Zrotation Yrotation Xrotation
			JOINT RightLeg
			{
				OFFSET -2.542530 -6.985550 0.000000
				CHANNELS 3 Zrotation Yrotation Xrotation
				JOINT RightFoot
				{
					OFFSET -2.568260 -7.056230 0.000000
					CHANNELS 3 Zrotation Yrotation Xrotation
					JOINT RightToeBase
					{
						OFFSET -0.164730 -0.452590 2.363150
						CHANNELS 3 Zrotation Yrotation Xrotation
						End Site
						{
							OFFSET 0.000000 0.000000 0.000000
						}
					}
				}
			}
		}
	}
	JOINT LowerBack
	{
		OFFSET 0.000000 0.000000 0.000000
		CHANNELS 3 Zrotation Yrotation Xrotation
		JOINT Spine
		{
			OFFSET 0.028270 2.035590 -0.193380
			CHANNELS 3 Zrotation Yrotation Xrotation
			JOINT Spine1
			{
				OFFSET 0.056720 2.048850 -0.042750
				CHANNELS 3 Zrotation Yrotation Xrotation
				JOINT Neck
				{
					OFFSET 0.000000 0.000000 0.000000
					CHANNELS 3 Zrotation Yrotation Xrotation
					JOINT Neck1
					{
						OFFSET -0.054170 1.746240 0.172020
						CHANNELS 3 Zrotation Yrotation Xrotation
						JOINT Head
						{
							OFFSET 0.104070 1.761360 -0.123970
							CHANNELS 3 Zrotation Yrotation Xrotation
							End Site
							{
								OFFSET 0.000000 0.000000 0.000000
							}
						}
					}
				}
				JOINT LeftShoulder
				{
					OFFSET 0.000000 0.000000 0.000000
					CHANNELS 3 Zrotation Yrotation Xrotation
					JOINT LeftArm
					{
						OFFSET 3.362410 1.200890 -0.311210
						CHANNELS 3 Zrotation Yrotation Xrotation
						JOINT LeftForeArm
						{
							OFFSET 4.983000 -0.000000 -0.000000
							CHANNELS 3 Zrotation Yrotation Xrotation
							JOINT LeftHand
							{
								OFFSET 3.483560 -0.000000 -0.000000
								CHANNELS 3 Zrotation Yrotation Xrotation
								JOINT LeftFingerBase
								{
									OFFSET 0.000000 0.000000 0.000000
									CHANNELS 3 Zrotation Yrotation Xrotation
									JOINT LeftHandIndex1
									{
										OFFSET 0.715260 -0.000000 -0.000000
										CHANNELS 3 Zrotation Yrotation Xrotation
										End Site
										{
											OFFSET 0.000000 0.000000 0.000000
										}
									}
								}
								JOINT LThumb
								{
									OFFSET 0.000000 0.000000 0.000000
									CHANNELS 3 Zrotation Yrotation Xrotation
									End Site
									{
										OFFSET 0.000000 0.000000 0.000000
									}
								}
							}
						}
					}
				}
				JOINT RightShoulder
				{
					OFFSET 0.000000 0.000000 0.000000
					CHANNELS 3 Zrotation Yrotation Xrotation
					JOINT RightArm
					{
						OFFSET -3.136600 1.374050 -0.404650
						CHANNELS 3 Zrotation Yrotation Xrotation
						JOINT RightForeArm
						{
							OFFSET -5.241900 -0.000000 -0.000000
							CHANNELS 3 Zrotation Yrotation Xrotation
							JOINT RightHand
							{
								OFFSET -3.444170 -0.000000 -0.000000
								CHANNELS 3 Zrotation Yrotation Xrotation
								JOINT RightFingerBase
								{
									OFFSET 0.000000 0.000000 0.000000
									CHANNELS 3 Zrotation Yrotation Xrotation
									JOINT RightHandIndex1
									{
										OFFSET -0.622530 -0.000000 -0.000000
										CHANNELS 3 Zrotation Yrotation Xrotation
										End Site
										{
											OFFSET 0.000000 0.000000 0.000000
										}
									}
								}
								JOINT RThumb
								{
									OFFSET 0.000000 0.000000 0.000000
									CHANNELS 3 Zrotation Yrotation Xrotation
									End Site
									{
										OFFSET 0.000000 0.000000 0.000000
									}
								}
							}
						}
					}
				}
			}
		}
	}
}
MOTION
Frames: 7
Frame Time: 0.008333
0.346600 17.435171 -1.879757 -3.226969 -10.512686 -7.013938 5.357167 3.236518 0.896089 -17.019368 -3.552770 -4.954588 1.450897 8.842789 29.146398 -1.114992 7.539203 -9.042173 0.566400 -4.820000 -13.395900 -5.920303 -2.397309 0.781160 27.427378 15.975371 -2.140115 -1.810265 -8.852507 26.457882 0.786862 -6.396489 -4.008029 -0.177700 2.715000 -7.486300 -18.340485 -0.882178 15.602591 -13.135554 -4.726647 7.132755 -3.945486 -1.517220 -6.695190 -16.779049 -11.350200 -11.095602 18.007568 -14.565374 3.312598 8.242100 -6.848900 5.938300 -6.722141 -5.681501 2.683358 -45.596285 -29.850012 14.214947 127.761500 -51.094098 -91.974956 0.317488 1.114741 -8.651276 -9.293326 30.806824 -4.881800 -7.125000 0.000000 0.000000 -42.384800 54.417900 -11.343800 5.821796 6.019772 2.646735 43.650869 15.670540 -17.250124 -105.005760 55.207138 -69.663685 0.976881 0.728285 8.800377 26.033477 8.339282 3.480600 7.125000 0.000000 0.000000 34.975900 -21.143100 25.084100 
0.364958 17.437825 -1.894024 -3.128237 -10.668415 -6.860161 5.357709 3.221110 0.888128 -17.157539 -3.473166 -5.187989 1.444962 8.862132 29.153316 -1.124538 7.591579 -9.055256 0.553900 -4.767600 -13.247000 -5.921824 -2.381687 0.791155 27.230536 16.214523 -2.409648 -1.810765 -8.873107 26.476400 0.784670 -6.387024 -3.887839 -0.182400 2.751100 -7.586400 -18.374407 -0.868648 15.708904 -13.151024 -4.701566 7.321944 -3.932377 -1.520843 -6.543142 -16.472496 -11.361762 -11.731292 17.881840 -14.596766 3.717904 8.110700 -6.823500 6.150600 -6.711145 -5.692747 2.675683 -45.484115 -30.029748 14.028254 127.655521 -51.130682 -91.885700 0.285063 1.131567 -9.028287 -9.535719 31.079131 -5.031700 -7.125000 0.000000 0.000000 -42.800300 54.569700 -11.662100 5.819488 6.021793 2.645678 43.799817 15.754163 -16.961018 -105.012475 55.202252 -69.663214 0.941397 0.737141 8.669902 25.263145 8.395446 3.391100 7.125000 0.000000 0.000000 34.582300 -21.201500 24.583200 
0.383206 17.440148 -1.907516 -3.105337 -10.847226 -6.708893 5.357284 3.211596 0.882014 -17.213306 -3.392290 -5.383439 1.433696 8.865192 29.120947 -1.135149 7.644098 -9.066304 0.528900 -4.660200 -12.942000 -5.923514 -2.365147 0.801080 27.118688 16.475193 -2.610205 -1.804551 -8.878541 26.454154 0.776175 -6.338176 -3.774440 -0.150400 2.499400 -6.888000 -18.354076 -0.822124 15.834864 -13.158887 -4.625571 7.521612 -3.956015 -1.502379 -6.399559 -16.040713 -11.382779 -12.219957 17.814475 -14.676992 4.050036 7.979300 -6.825600 6.318300 -6.708530 -5.695225 2.671556 -45.442227 -30.101147 13.955495 127.655455 -51.129631 -91.885741 0.280587 1.134468 -9.179723 -9.514428 31.140341 -5.029200 -7.125000 0.000000 0.000000 -42.832400 54.619100 -11.729400 5.820703 6.026109 2.648238 43.971111 15.722830 -16.716536 -105.060583 55.189611 -69.703095 0.903293 0.746215 8.449781 24.451679 8.438811 3.289800 7.125000 0.000000 0.000000 34.164300 -21.269200 24.057400 
0.402007 17.443797 -1.919792 -3.055108 -11.044623 -6.585027 5.357178 3.204653 0.876554 -17.310150 -3.311877 -5.540065 1.420857 8.865233 29.081597 -1.160604 7.756594 -9.052175 0.515600 -4.602200 -12.777300 -5.923177 -2.352143 0.806931 26.983737 16.658289 -2.784519 -1.794305 -8.870609 26.400031 0.767963 -6.285124 -3.630271 -0.150600 2.500900 -6.892100 -18.320913 -0.725619 15.982667 -13.178737 -4.503344 7.663043 -4.024206 -1.453093 -6.336131 -15.644344 -11.424463 -12.414884 17.796551 -14.832350 4.398215 7.874600 -6.880400 6.461000 -6.715966 -5.686811 2.674042 -45.550545 -29.993409 14.131568 127.698519 -51.111449 -91.929219 0.296801 1.117615 -9.052332 -9.373312 30.881904 -4.926700 -7.125000 0.000000 0.000000 -42.507500 54.460800 -11.435200 5.825689 6.024382 2.653838 44.248947 15.496195 -16.414671 -105.109026 55.173796 -69.744653 0.866920 0.752952 8.229201 23.684885 8.452024 3.183200 7.125000 0.000000 0.000000 33.769900 -21.350600 23.554700 
0.423352 17.447447 -1.931404 -3.034313 -11.288459 -6.437677 5.357318 3.197559 0.870819 -17.379093 -3.244336 -5.700644 1.406158 8.863726 29.036951 -1.186513 7.883784 -9.096549 0.488600 -4.481900 -12.436400 -5.923618 -2.337211 0.813346 26.873500 16.860766 -2.979770 -1.784948 -8.866901 26.352764 0.760037 -6.234866 -3.451480 -0.170200 2.658100 -7.328200 -18.223616 -0.639599 16.151459 -13.180336 -4.408430 7.720944 -4.101115 -1.408435 -6.379683 -15.446924 -11.446294 -12.397691 17.863488 -14.954236 4.670955 7.847700 -6.932700 6.559500 -6.714855 -5.676776 2.673707 -45.614896 -29.929198 14.255809 127.550625 -51.162876 -91.807952 0.296370 1.108477 -9.041466 -9.371620 30.754277 -4.907100 -7.125000 0.000000 0.000000 -42.401300 54.370800 -11.296800 5.828042 6.018958 2.661584 44.574211 15.222781 -15.934387 -105.153826 55.156933 -69.782227 0.819869 0.758261 7.982416 22.688857 8.422962 3.028200 7.125000 0.000000 0.000000 33.259700 -21.487100 22.890200 
0.444918 17.449991 -1.943680 -2.912346 -11.538812 -6.290781 5.357225 3.182323 0.861832 -17.562833 -3.206279 -5.859842 1.387067 8.863349 28.986166 -1.219733 8.047668 -9.145907 0.473800 -4.414400 -12.245600 -5.922612 -2.324463 0.821080 26.647862 17.110660 -3.141318 -1.777895 -8.865479 26.320326 0.741575 -6.124873 -3.394805 -0.168500 2.644400 -7.290200 -18.287525 -0.562158 16.273745 -13.152910 -4.342969 7.786959 -4.052175 -1.377259 -6.369014 -15.488311 -11.479267 -12.371534 18.047469 -15.056484 4.847854 7.905500 -6.977000 6.654300 -6.714611 -5.671197 2.676249 -45.725930 -29.873451 14.248084 127.369020 -51.228467 -91.648793 0.294983 1.104146 -9.071891 -9.344608 30.715982 -4.887600 -7.125000 0.000000 0.000000 -42.347000 54.350600 -11.255200 5.830634 6.009188 2.665963 44.842176 15.053315 -15.337981 -105.224051 55.137183 -69.844777 0.762330 0.763233 7.677268 21.471672 8.379488 2.839900 7.125000 0.000000 0.000000 32.624100 -21.648400 22.096500 
0.465599 17.451871 -1.955956 -2.761573 -11.764563 -6.132665 5.358306 3.164360 0.853128 -17.781241 -3.195538 -6.052430 1.370677 8.873950 28.957986 -1.257201 8.229734 -9.181654 0.469000 -4.392600 -12.183800 -5.920346 -2.312440 0.827182 26.378972 17.313342 -3.336856 -1.769969 -8.861142 26.278125 0.727237 -6.037042 -3.275889 -0.172700 2.677200 -7.381400 -18.363201 -0.501935 16.369002 -13.163729 -4.287423 7.884343 -4.035032 -1.354644 -6.306364 -15.579464 -11.496712 -12.448025 18.467806 -15.160153 5.075541 8.053200 -7.006700 6.815500 -6.717288 -5.665568 2.678475 -45.745564 -29.760319 14.190386 127.302741 -51.257160 -91.578498 0.299066 1.114927 -9.146865 -9.209143 30.906215 -4.849500 -7.125000 0.000000 0.000000 -42.391200 54.514100 -11.453900 5.832356 6.001710 2.668103 45.141561 14.942691 -14.806332 -105.231151 55.127700 -69.844196 0.708666 0.780535 7.261358 20.391081 8.552912 2.747800 7.125000 0.000000 0.000000 31.998400 -21.601500 21.528500 
